<?xml version="1.0" encoding="UTF-8"?>
<svg xmlns="http://www.w3.org/2000/svg" viewBox="0 0 800 800">
  <g fill="#1D3C34">
    <path d="M400 142c-158.5 0-286.9 128.4-286.9 286.9 0 158.5 128.4 286.9 286.9 286.9s286.9-128.4 286.9-286.9C686.9 270.4 558.5 142 400 142zm0 524.6c-131 0-237.7-106.6-237.7-237.7 0-131 106.6-237.7 237.7-237.7 131 0 237.7 106.6 237.7 237.7 0 131-106.7 237.7-237.7 237.7z"/>
    <path d="M208.7 370.5h382.6v59H208.7z"/>
    <path d="M400 370.5c-32.6 0-59 26.4-59 59h118c0-32.6-26.4-59-59-59z"/>
    <ellipse cx="400" cy="488.5" rx="59" ry="59"/>
    <path d="M400 192.9c-32.6 0-59 26.4-59 59h118c0-32.6-26.4-59-59-59zM282 311.5c-32.6 0-59 26.4-59 59h118c0-32.6-26.4-59-59-59zM518 311.5c-32.6 0-59 26.4-59 59h118c0-32.6-26.4-59-59-59z"/>
  </g>
</svg> 