<?xml version="1.0" encoding="UTF-8"?>
<svg width="40" height="40" viewBox="0 0 40 40" fill="none" xmlns="http://www.w3.org/2000/svg">
  <!-- Escudo -->
  <path d="M20 0C31 0 40 9 40 20C40 31 31 40 20 40C9 40 0 31 0 20C0 9 9 0 20 0Z" fill="#0B4B5F"/>
  <path d="M20 2C30 2 38 10 38 20C38 30 30 38 20 38C10 38 2 30 2 20C2 10 10 2 20 2Z" fill="#F0E6D2"/>
  
  <!-- Livro -->
  <path d="M20 8C22 8 22 10 22 10V30C22 30 22 32 20 32C18 32 18 30 18 30V10C18 10 18 8 20 8Z" fill="#0B4B5F"/>
  <path d="M13 10H20V30H13C12 30 10 28 10 26V14C10 12 12 10 13 10Z" fill="#FFFFFF"/>
  <path d="M27 10H20V30H27C28 30 30 28 30 26V14C30 12 28 10 27 10Z" fill="#FFFFFF"/>
  
  <!-- Contorno Dourado do Livro -->
  <path d="M13 10H20V30H13C12 30 10 28 10 26V14C10 12 12 10 13 10Z" stroke="#C69F3B" strokeWidth="0.5"/>
  <path d="M27 10H20V30H27C28 30 30 28 30 26V14C30 12 28 10 27 10Z" stroke="#C69F3B" strokeWidth="0.5"/>
  
  <!-- Padrão de Conexão (esquerda) -->
  <circle cx="14" cy="15" r="1" fill="#0B4B5F"/>
  <circle cx="12" cy="19" r="1" fill="#0B4B5F"/>
  <circle cx="15" cy="22" r="1" fill="#0B4B5F"/>
  <circle cx="13" cy="26" r="1" fill="#0B4B5F"/>
  <circle cx="17" cy="18" r="1" fill="#0B4B5F"/>
  <line x1="14" y1="15" x2="12" y2="19" stroke="#0B4B5F" strokeWidth="0.5"/>
  <line x1="12" y1="19" x2="17" y2="18" stroke="#0B4B5F" strokeWidth="0.5"/>
  <line x1="17" y1="18" x2="15" y2="22" stroke="#0B4B5F" strokeWidth="0.5"/>
  <line x1="15" y1="22" x2="13" y2="26" stroke="#0B4B5F" strokeWidth="0.5"/>
  <line x1="12" y1="19" x2="15" y2="22" stroke="#0B4B5F" strokeWidth="0.5"/>
  
  <!-- Pena (direita) -->
  <path d="M24 15C24 15 27 17 26 21C25 25 23 27 23 27L24 26C24 26 27 23 26 18C25 13 24 15 24 15Z" fill="#C69F3B"/>
  <path d="M24 15C24 15 23 17 24 21C25 25 26 27 26 27L24 26C24 26 23 23 24 18C25 13 24 15 24 15Z" fill="#C69F3B"/>
</svg> 