<svg width="180" height="180" viewBox="0 0 180 180" fill="none" xmlns="http://www.w3.org/2000/svg">
  <!-- Balança minimalista -->
  <path d="M90 30 L90 60" stroke="#6FA590" stroke-width="3" stroke-linecap="round"/>
  <path d="M50 60 L130 60" stroke="#6FA590" stroke-width="3" stroke-linecap="round"/>
  <circle cx="50" cy="80" r="20" stroke="#6FA590" stroke-width="3" fill="none"/>
  <circle cx="130" cy="80" r="20" stroke="#6FA590" stroke-width="3" fill="none"/>
  
  <!-- Traços de circuito (IA) -->
  <path d="M40 120 L60 120 L60 140 L80 140" stroke="#8AA1B1" stroke-width="2" stroke-linecap="round"/>
  <path d="M100 140 L120 140 L120 120 L140 120" stroke="#8AA1B1" stroke-width="2" stroke-linecap="round"/>
  <circle cx="90" cy="140" r="3" fill="#8AA1B1"/>
  <circle cx="70" cy="120" r="3" fill="#8AA1B1"/>
  <circle cx="110" cy="120" r="3" fill="#8AA1B1"/>
  
  <!-- Elemento de coração estilizado -->
  <path d="M90 110 C70 90 50 100 50 120 C50 140 90 150 90 150 C90 150 130 140 130 120 C130 100 110 90 90 110Z" fill="#6FA590" opacity="0.7"/>

  <!-- Texto Equilibri.IA -->
  <text x="90" y="170" font-family="Inter, sans-serif" font-weight="bold" font-size="16" text-anchor="middle" fill="#6FA590">Equilibri.IA</text>
</svg> 